# Blender 3.6.0
# www.blender.org
o TrashBag
v 0.109567 -0.494718 -0.190094
v 0.000809 -0.497569 0.214886
v -0.190575 -0.502586 0.147435
v -0.248831 -0.504113 -0.034246
v -0.098483 -0.500172 -0.213288
v 0.074803 0.338988 -0.104090
v 0.022563 0.382298 0.113143
v -0.083881 0.394790 0.077467
v -0.114582 0.401728 -0.026638
v -0.025625 0.393187 -0.120952
v -0.061864 0.330991 -0.023093
v -0.009166 0.319082 -0.069810
v -0.014419 0.293402 -0.068879
v -0.066592 0.305192 -0.023093
v -0.044432 0.300184 0.032953
v 0.005817 0.288829 0.054240
v 0.037917 0.281574 -0.055543
v 0.044218 0.307018 -0.056474
v 0.011647 0.314379 0.055314
v -0.039179 0.325865 0.033884
v 0.078480 0.209637 -0.136841
v -0.002353 0.216989 0.153466
v -0.144763 0.229942 0.105862
v -0.186686 0.233755 -0.034232
v -0.067540 0.222918 -0.160021
v 0.149983 -0.438710 -0.269592
v 0.111791 0.129564 -0.202203
v 0.000790 -0.445962 0.309718
v -0.002952 0.120797 0.228851
v -0.261416 -0.458708 0.211760
v -0.204831 0.105372 0.156888
v -0.344047 -0.462725 -0.028707
v -0.266605 0.100652 -0.034249
v -0.152432 -0.453410 -0.289857
v -0.109669 0.112643 -0.225400
v 0.153319 -0.030094 -0.230243
v 0.025344 -0.020779 0.269258
v -0.199546 -0.004409 0.184683
v -0.270641 0.000766 -0.021174
v -0.107438 -0.011113 -0.246731
v 0.188484 -0.492649 -0.029065
v 0.176272 -0.492969 0.104058
v 0.114088 0.341512 0.049937
v 0.110820 0.330848 -0.022480
v 0.060094 0.303431 0.021578
v 0.070472 0.304129 -0.019817
v 0.063620 0.278810 -0.019866
v 0.053382 0.278080 0.021030
v 0.124142 0.205484 0.071027
v 0.126688 0.205253 -0.028731
v 0.279346 -0.432421 -0.024012
v 0.250045 -0.433845 0.156649
v 0.183435 0.135038 0.111370
v 0.197642 0.136123 -0.028771
v 0.239896 -0.036395 0.137659
v 0.265996 -0.038295 -0.017268
v -0.008965 -0.525913 -0.000045
v -0.008965 -0.525913 -0.000045
v -0.008965 -0.525913 -0.000045
v -0.008965 -0.525913 -0.000045
v -0.008965 -0.525913 -0.000045
v -0.008965 -0.525913 -0.000045
v -0.008965 -0.525913 -0.000045
v 0.060677 0.345975 -0.081012
v 0.020579 0.379219 0.085728
v -0.061124 0.388807 0.058344
v -0.084689 0.394133 -0.021563
v -0.016408 0.387577 -0.093955
v 0.090830 0.347913 0.037214
v 0.088322 0.339728 -0.018371
v 0.008884 0.303484 -0.004802
v 0.184646 -0.236245 -0.325319
v 0.005970 -0.233504 0.370372
v -0.308035 -0.228688 0.252652
v -0.407154 -0.227158 -0.035034
v -0.178526 -0.230617 -0.348930
v 0.340833 -0.238714 -0.029501
v 0.305030 -0.238124 0.186833
vn 0.6275 -0.5747 0.5253
vn 0.8978 0.0961 0.4297
vn 0.1856 0.3935 0.9004
vn 0.0102 -0.4428 0.8966
vn 0.0816 -0.9320 0.3532
vn -0.1985 -0.9521 0.2325
vn -0.0479 -0.9940 0.0983
vn 0.0424 -0.9908 0.1287
vn 0.7900 0.3629 0.4942
vn 0.1581 0.4881 0.8583
vn 0.4421 0.6871 -0.5766
vn 0.5622 0.3859 -0.7315
vn 0.9360 0.3011 -0.1824
vn 0.7184 0.6810 -0.1419
vn -0.6889 -0.3290 0.6459
vn -0.5392 0.5850 0.6058
vn -0.9162 -0.3178 -0.2441
vn -0.7286 0.6507 -0.2138
vn -0.3394 -0.3698 -0.8649
vn -0.1550 0.5170 -0.8418
vn 0.6149 0.0492 -0.7870
vn 0.3855 -0.5510 -0.7401
vn -0.1660 0.4771 -0.8630
vn 0.4060 -0.9103 -0.0802
vn 0.3477 -0.9164 0.1981
vn 0.1307 -0.9882 0.0801
vn 0.1624 -0.9864 -0.0255
vn 0.7465 -0.6461 -0.1588
vn -0.6386 0.4222 0.6433
vn -0.8673 0.4663 -0.1742
vn -0.2234 0.6793 -0.6991
vn 0.9755 0.0224 -0.2188
vn 0.7173 0.5138 0.4707
vn 0.6074 0.7105 0.3552
vn 0.1062 0.6961 0.7100
vn 0.0578 0.4337 0.8992
vn 0.2585 -0.9144 -0.3114
vn 0.4563 -0.5621 -0.6898
vn 0.8194 -0.5586 -0.1284
vn 0.5353 0.0559 -0.8428
vn 0.5467 0.3587 -0.7567
vn 0.9271 0.3465 -0.1433
vn 0.9872 0.0254 -0.1571
vn 0.0899 -0.5751 0.8131
vn -0.5657 -0.5982 0.5676
vn -0.5025 0.6980 0.5102
vn -0.7032 0.3348 0.6273
vn -0.7910 -0.6009 -0.1150
vn -0.2899 -0.9537 -0.0806
vn -0.6955 0.6983 -0.1695
vn -0.9421 0.2808 -0.1832
vn -0.3421 -0.5802 -0.7392
vn -0.0899 -0.9359 -0.3406
vn -0.3955 0.3290 -0.8575
vn 0.4752 0.4451 -0.7590
vn 0.8319 0.0327 0.5539
vn 0.7830 0.3651 0.5036
vn 0.1382 0.3610 0.9223
vn 0.0881 0.0708 0.9936
vn 0.8486 0.5045 -0.1593
vn -0.6389 0.3408 0.6897
vn -0.7171 0.1128 0.6878
vn -0.9406 0.3113 -0.1357
vn -0.9815 0.1269 -0.1437
vn -0.3600 0.3320 -0.8719
vn -0.4241 0.1030 -0.8997
vn 0.6858 -0.5673 0.4559
vn -0.0344 -0.9938 -0.1055
vn -0.0871 -0.9959 -0.0241
vn 0.1131 -0.9893 -0.0919
vn 0.3982 0.9124 0.0952
vn 0.4013 0.8838 0.2407
vn 0.2133 0.9216 -0.3242
vn 0.3336 0.9226 -0.1938
vn 0.1338 0.9583 -0.2527
vn 0.2886 0.9421 0.1707
vn 0.0142 0.9993 -0.0348
vn 0.1916 0.9810 -0.0304
vt 0.297086 0.922618
vt 0.538775 0.908807
vt 0.538775 0.908807
vt 0.297086 0.922618
vt 0.297086 0.922618
vt 0.297086 0.922618
vt 0.297086 0.922618
s 1
f 45/1/1 43/1/2 7/1/3 19/1/4
f 2/1/5 3/1/6 59/1/7 58/1/8
f 48/2/9 45/3/1 19/2/4 16/2/10
f 21/1/11 17/1/12 47/1/13 50/4/14
f 16/2/10 19/2/4 20/2/15 15/2/16
f 15/2/16 20/2/15 11/2/17 14/2/18
f 14/2/18 11/2/17 12/2/19 13/2/20
f 6/1/21 18/1/22 12/1/19 10/1/23
f 41/1/24 42/4/25 63/4/26 62/1/27
f 17/2/12 18/2/22 46/3/28 47/2/13
f 19/1/4 7/1/3 8/1/29 20/1/15
f 20/1/15 8/1/29 9/1/30 11/1/17
f 11/1/17 9/1/30 10/1/23 12/1/19
f 17/1/12 21/1/11 25/1/31 13/1/20
f 18/1/22 6/1/21 44/5/32 46/1/28
f 53/1/33 49/4/34 22/1/35 29/1/36
f 1/1/37 26/1/38 51/4/39 41/1/24
f 72/5/40 36/1/41 56/5/42 77/6/43
f 2/1/5 28/1/44 30/1/45 3/1/6
f 29/1/36 22/1/35 23/1/46 31/1/47
f 3/1/6 30/1/45 32/1/48 4/1/49
f 31/1/47 23/1/46 24/1/50 33/1/51
f 4/1/49 32/1/48 34/1/52 5/1/53
f 33/1/51 24/1/50 25/1/31 35/1/54
f 21/1/11 27/1/55 35/1/54 25/1/31
f 26/1/38 1/1/37 5/1/53 34/1/52
f 78/4/56 55/1/57 37/1/58 73/1/59
f 55/1/57 53/1/33 29/1/36 37/1/58
f 36/1/41 27/1/55 54/1/60 56/4/42
f 73/1/59 37/1/58 38/1/61 74/1/62
f 37/1/58 29/1/36 31/1/47 38/1/61
f 74/1/62 38/1/61 39/1/63 75/1/64
f 38/1/61 31/1/47 33/1/51 39/1/63
f 75/1/64 39/1/63 40/1/65 76/7/66
f 39/1/63 33/1/51 35/1/54 40/1/65
f 27/1/55 36/1/41 40/1/65 35/1/54
f 72/5/40 26/1/38 34/1/52 76/7/66
f 49/1/34 48/5/9 16/1/10 22/1/35
f 27/1/55 21/1/11 50/1/14 54/1/60
f 22/1/35 16/1/10 15/1/16 23/1/46
f 23/1/46 15/1/16 14/1/18 24/1/50
f 24/1/50 14/1/18 13/1/20 25/1/31
f 18/2/22 17/2/12 13/2/20 12/2/19
f 42/4/25 52/5/67 28/1/44 2/1/5
f 4/1/49 5/1/53 61/1/68 60/1/69
f 43/1/2 45/1/1 46/1/28 44/5/32
f 48/5/9 49/1/34 50/4/14 47/1/13
f 41/1/24 51/4/39 52/5/67 42/4/25
f 49/4/34 53/1/33 54/1/60 50/1/14
f 53/1/33 55/1/57 56/4/42 54/1/60
f 77/6/43 56/5/42 55/1/57 78/4/56
f 45/3/1 48/2/9 47/2/13 46/3/28
f 42/4/25 2/1/5 58/1/8 63/4/26
f 1/1/37 41/1/24 62/1/27 57/1/70
f 5/1/53 1/1/37 57/1/70 61/1/68
f 3/1/6 4/1/49 60/1/69 59/1/7
f 10/1/23 9/1/30 67/1/71 68/1/72
f 8/1/29 7/1/3 65/1/73 66/1/74
f 7/1/3 43/1/2 69/1/75 65/1/73
f 6/1/21 10/1/23 68/1/72 64/1/76
f 9/1/30 8/1/29 66/1/74 67/1/71
f 43/1/2 44/5/32 70/5/77 69/1/75
f 44/5/32 6/1/21 64/1/76 70/5/77
f 65/1/73 69/1/75 71/1/78
f 69/1/75 70/5/77 71/1/78
f 68/1/72 67/1/71 71/1/78
f 66/1/74 65/1/73 71/1/78
f 70/5/77 64/1/76 71/5/78
f 64/1/76 68/1/72 71/1/78
f 67/1/71 66/1/74 71/1/78
f 51/1/39 77/6/43 78/4/56 52/4/67
f 36/1/41 72/5/40 76/7/66 40/1/65
f 32/1/48 75/1/64 76/7/66 34/1/52
f 30/1/45 74/1/62 75/1/64 32/1/48
f 28/1/44 73/1/59 74/1/62 30/1/45
f 52/4/67 78/4/56 73/1/59 28/1/44
f 26/1/38 72/5/40 77/6/43 51/1/39
